<svg version="1.1" viewBox="0.0 0.0 960.0 540.0" fill="none" stroke="none" stroke-linecap="square" stroke-miterlimit="10" xmlns:xlink="http://www.w3.org/1999/xlink" xmlns="http://www.w3.org/2000/svg"><clipPath id="g524029837c_2_24.0"><path d="m0 0l960.0 0l0 540.0l-960.0 0l0 -540.0z" clip-rule="nonzero"/></clipPath><g clip-path="url(#g524029837c_2_24.0)"><path fill="#000000" fill-opacity="0.0" d="m0 0l960.0 0l0 540.0l-960.0 0z" fill-rule="evenodd"/><path fill="#000000" fill-opacity="0.0" d="m247.27296 246.04198l0 0c0 -88.51341 104.19426 -160.26772 232.72441 -160.26772c128.53015 0 232.72443 71.7543 232.72443 160.26772l-80.13385 0l0 0c0 -44.256714 -68.31714 -80.13385 -152.59058 -80.13385c-84.27344 0 -152.59055 35.877136 -152.59055 80.13385z" fill-rule="evenodd"/><path fill="#000000" fill-opacity="0.0" d="m712.7244 246.04198l0 0c0 88.51341 -104.194275 160.26772 -232.72443 160.26772c-128.53015 0 -232.72441 -71.7543 -232.72441 -160.26772l80.133865 0l0 0c0 44.2567 68.31711 80.133865 152.59055 80.133865c84.27344 0 152.59058 -35.877167 152.59058 -80.133865z" fill-rule="evenodd"/><path fill="#000000" fill-opacity="0.0" d="m350.77692 435.91864l263.24408 0l0 47.716522l-263.24408 0z" fill-rule="evenodd"/><path fill="#0c343d" d="m401.63232 461.50552l-1.328125 0l0.078125 -2.421875l1.578125 0l0.34375 -2.78125l-1.90625 0l0.046875 -2.5l2.28125 0l0.609375 -5.28125l2.546875 0l-0.625 5.28125l1.859375 0l0.609375 -5.28125l2.515625 0l-0.625 5.28125l1.28125 0l-0.078125 2.5l-1.625 0l-0.3125 2.78125l1.890625 0l-0.078125 2.421875l-2.15625 0l-0.796875 6.453125l-2.484375 0l0.765625 -6.453125l-1.875 0l-0.765625 6.453125l-2.5 0l0.75 -6.453125zm4.71875 -2.421875l0.34375 -2.78125l-1.875 0l-0.359375 2.78125l1.890625 0z" fill-rule="nonzero"/><path fill="#0b5394" d="m419.01077 468.2399q-3.171875 0 -4.515625 -1.65625q-1.328125 -1.671875 -1.328125 -4.8125l0 -7.015625q0 -3.21875 1.3125 -4.859375q1.328125 -1.640625 4.53125 -1.640625q3.046875 0 4.3125 1.46875q1.265625 1.453125 1.265625 4.140625l0 1.6875l-4.1875 0l0 -1.953125q0 -1.125 -0.25 -1.71875q-0.234375 -0.609375 -1.140625 -0.609375q-0.921875 0 -1.21875 0.640625q-0.28125 0.640625 -0.28125 1.765625l0 9.140625q0 1.15625 0.296875 1.765625q0.3125 0.609375 1.203125 0.609375q0.875 0 1.125 -0.609375q0.265625 -0.609375 0.265625 -1.765625l0 -2.03125l4.1875 0l0 1.671875q0 2.734375 -1.265625 4.265625q-1.265625 1.515625 -4.3125 1.515625zm8.011963 -19.71875l4.296875 0l0 7.875l3.0 0l0 -7.875l4.3125 0l0 19.4375l-4.3125 0l0 -8.5l-3.0 0l0 8.5l-4.296875 0l0 -19.4375zm14.593079 0l4.296875 0l0 19.4375l-4.296875 0l0 -19.4375zm12.770874 19.71875q-3.171875 0 -4.515625 -1.65625q-1.328125 -1.671875 -1.328125 -4.8125l0 -7.015625q0 -3.21875 1.3125 -4.859375q1.328125 -1.640625 4.53125 -1.640625q3.046875 0 4.3125 1.46875q1.265625 1.453125 1.265625 4.140625l0 1.6875l-4.1875 0l0 -1.953125q0 -1.125 -0.25 -1.71875q-0.234375 -0.609375 -1.140625 -0.609375q-0.921875 0 -1.21875 0.640625q-0.28125 0.640625 -0.28125 1.765625l0 9.140625q0 1.15625 0.296875 1.765625q0.3125 0.609375 1.203125 0.609375q0.875 0 1.125 -0.609375q0.265625 -0.609375 0.265625 -1.765625l0 -2.03125l4.1875 0l0 1.671875q0 2.734375 -1.265625 4.265625q-1.265625 1.515625 -4.3125 1.515625zm7.933838 -19.71875l4.296875 0l0 7.9375l3.265625 -7.9375l4.203125 0l-3.609375 8.78125l3.78125 10.65625l-4.375 0l-2.8125 -8.59375l-0.453125 0.765625l0 7.828125l-4.296875 0l0 -19.4375zm13.607941 0l8.734375 0l0 2.921875l-4.4375 0l0 4.828125l3.390625 0l0 2.96875l-3.390625 0l0 5.8125l4.484375 0l0 2.90625l-8.78125 0l0 -19.4375zm10.727966 0l3.03125 0l3.984375 9.359375l0 -9.359375l3.546875 0l0 19.4375l-2.90625 0l-3.984375 -10.078125l0 10.078125l-3.671875 0l0 -19.4375zm12.557709 0l3.671875 0l2.078125 13.203125l1.953125 -13.203125l3.890625 0l-3.5625 19.4375l-4.53125 0l-3.5 -19.4375zm13.561493 0l4.296875 0l0 19.4375l-4.296875 0l0 -19.4375zm12.348938 19.71875q-2.78125 0 -4.140625 -1.46875q-1.34375 -1.46875 -1.4375 -4.6875l3.671875 -0.5625q0.015625 1.859375 0.4375 2.671875q0.421875 0.796875 1.265625 0.796875q1.078125 0 1.078125 -1.421875q0 -1.125 -0.515625 -1.9375q-0.515625 -0.828125 -1.625 -1.765625l-1.6875 -1.453125q-1.234375 -1.0625 -1.921875 -2.25q-0.6875 -1.1875 -0.6875 -2.8125q0 -2.453125 1.453125 -3.765625q1.453125 -1.328125 4.0 -1.328125q2.75 0 3.75 1.609375q1.0 1.609375 1.0625 3.90625l-3.6875 0.453125q-0.046875 -1.5 -0.28125 -2.15625q-0.21875 -0.671875 -0.984375 -0.671875q-0.5625 0 -0.859375 0.46875q-0.296875 0.46875 -0.296875 1.046875q0 0.984375 0.4375 1.65625q0.453125 0.671875 1.4375 1.53125l1.59375 1.421875q1.453125 1.21875 2.234375 2.59375q0.796875 1.359375 0.796875 3.234375q0 1.375 -0.640625 2.484375q-0.625 1.109375 -1.78125 1.765625q-1.15625 0.640625 -2.671875 0.640625zm7.2109985 -19.71875l4.296875 0l0 19.4375l-4.296875 0l0 -19.4375zm12.770874 19.71875q-3.15625 0 -4.5 -1.609375q-1.34375 -1.625 -1.34375 -4.796875l0 -7.21875q0 -3.171875 1.34375 -4.765625q1.34375 -1.59375 4.5 -1.59375q3.15625 0 4.515625 1.609375q1.359375 1.609375 1.359375 4.75l0 7.21875q0 3.171875 -1.359375 4.796875q-1.359375 1.609375 -4.515625 1.609375zm0 -3.046875q0.90625 0 1.1875 -0.609375q0.296875 -0.609375 0.296875 -1.671875l0 -9.359375q0 -1.078125 -0.296875 -1.671875q-0.28125 -0.609375 -1.1875 -0.609375q-0.875 0 -1.171875 0.625q-0.28125 0.609375 -0.28125 1.65625l0 9.359375q0 1.0625 0.265625 1.671875q0.265625 0.609375 1.1875 0.609375zm8.48584 -16.671875l3.03125 0l3.984375 9.359375l0 -9.359375l3.546875 0l0 19.4375l-2.90625 0l-3.984375 -10.078125l0 10.078125l-3.671875 0l0 -19.4375z" fill-rule="nonzero"/><path fill="#ffab40" d="m629.0394 197.18636l91.08661 78.598434l-91.08661 78.59842z" fill-rule="evenodd"/><path stroke="#ffab40" stroke-width="24.0" stroke-linejoin="round" stroke-linecap="butt" d="m629.0394 197.18636l91.08661 78.598434l-91.08661 78.59842z" fill-rule="evenodd"/><path fill="#ffffff" d="m434.3937 424.0483l0 0c-87.45233 -25.883453 -137.92783 -115.83545 -112.74014 -200.91339l0 0c12.095551 -40.855865 40.37857 -75.10072 78.627106 -95.20108c38.248566 -20.100357 83.32956 -24.409698 125.32565 -11.980026l0 0c87.45233 25.883453 137.9278 115.83545 112.74017 200.91338l0 0c-25.187683 85.07794 -116.50043 133.06458 -203.95279 107.18112z" fill-rule="evenodd"/><path stroke="#595959" stroke-width="1.0" stroke-linejoin="round" stroke-linecap="butt" d="m434.3937 424.0483l0 0c-87.45233 -25.883453 -137.92783 -115.83545 -112.74014 -200.91339l0 0c12.095551 -40.855865 40.37857 -75.10072 78.627106 -95.20108c38.248566 -20.100357 83.32956 -24.409698 125.32565 -11.980026l0 0c87.45233 25.883453 137.9278 115.83545 112.74017 200.91338l0 0c-25.187683 85.07794 -116.50043 133.06458 -203.95279 107.18112z" fill-rule="evenodd"/><path fill="#000000" d="m448.3281 270.0l0 0c0 -18.368896 14.1788025 -33.259842 31.669281 -33.259842l0 0c8.399231 0 16.454437 3.5041504 22.393585 9.741577c5.9391174 6.237442 9.275696 14.69722 9.275696 23.518265l0 0c0 18.368896 -14.1788025 33.259857 -31.669281 33.259857l0 0c-17.490479 0 -31.669281 -14.890961 -31.669281 -33.259857z" fill-rule="evenodd"/><path stroke="#595959" stroke-width="1.0" stroke-linejoin="round" stroke-linecap="butt" d="m448.3281 270.0l0 0c0 -18.368896 14.1788025 -33.259842 31.669281 -33.259842l0 0c8.399231 0 16.454437 3.5041504 22.393585 9.741577c5.9391174 6.237442 9.275696 14.69722 9.275696 23.518265l0 0c0 18.368896 -14.1788025 33.259857 -31.669281 33.259857l0 0c-17.490479 0 -31.669281 -14.890961 -31.669281 -33.259857z" fill-rule="evenodd"/><path fill="#cc0000" d="m325.4985 213.95726l0 0c-18.790558 -20.067368 -22.890259 -62.31775 -9.823059 -101.23327c13.0672 -38.915527 39.721313 -63.834606 63.864166 -59.70693c24.142822 4.127674 39.159973 36.17126 35.98163 76.777466z" fill-rule="evenodd"/><path stroke="#cc0000" stroke-width="24.0" stroke-linejoin="round" stroke-linecap="butt" d="m325.4985 213.95726l0 0c-18.790558 -20.067368 -22.890259 -62.31775 -9.823059 -101.23327c13.0672 -38.915527 39.721313 -63.834606 63.864166 -59.70693c24.142822 4.127674 39.159973 36.17126 35.98163 76.777466z" fill-rule="evenodd"/><path fill="#cc0000" d="m426.98907 124.71439c-6.689026 -28.639252 5.1420593 -65.96631 28.586243 -90.18967c23.444214 -24.223352 52.358063 -28.995321 69.861694 -11.530035c17.503601 17.465284 19.010132 52.591087 3.6401367 84.87099z" fill-rule="evenodd"/><path stroke="#cc0000" stroke-width="24.0" stroke-linejoin="round" stroke-linecap="butt" d="m426.98907 124.71439c-6.689026 -28.639252 5.1420593 -65.96631 28.586243 -90.18967c23.444214 -24.223352 52.358063 -28.995321 69.861694 -11.530035c17.503601 17.465284 19.010132 52.591087 3.6401367 84.87099z" fill-rule="evenodd"/><path fill="#cc0000" d="m527.4518 111.03836l0 0c23.546143 -29.044968 61.892456 -51.527187 95.16693 -55.795795c33.274475 -4.268608 53.9964 10.636066 51.427063 36.99004c-2.569336 26.353973 -27.852234 58.23233 -62.74646 79.1149z" fill-rule="evenodd"/><path stroke="#cc0000" stroke-width="24.0" stroke-linejoin="round" stroke-linecap="butt" d="m527.4518 111.03836l0 0c23.546143 -29.044968 61.892456 -51.527187 95.16693 -55.795795c33.274475 -4.268608 53.9964 10.636066 51.427063 36.99004c-2.569336 26.353973 -27.852234 58.23233 -62.74646 79.1149z" fill-rule="evenodd"/></g></svg>